{
    "accessors" : [
        {
            "bufferView" : 0,
            "componentType" : 5121,
            "count" : 180,
            "max" : [
                161
            ],
            "min" : [
                0
            ],
            "type" : "SCALAR"
        },
        {
            "bufferView" : 1,
            "componentType" : 5126,
            "count" : 162,
            "max" : [
                21.508934020996094,
                9.215652465820312,
                9.54140567779541
            ],
            "min" : [
                -21.50995635986328,
                0,
                -9.545701026916504
            ],
            "type" : "VEC3"
        },
        {
            "bufferView" : 2,
            "componentType" : 5126,
            "count" : 162,
            "max" : [
                0.9984130263328552,
                1,
                0.9984433650970459
            ],
            "min" : [
                -0.9984433054924011,
                -1,
                -0.9984435439109802
            ],
            "type" : "VEC3"
        },
        {
            "bufferView" : 3,
            "componentType" : 5126,
            "count" : 162,
            "max" : [
                1,
                1,
                0.9984409809112549,
                1
            ],
            "min" : [
                -0.9984433054924011,
                -1,
                -0.9984442591667175,
                -1
            ],
            "type" : "VEC4"
        },
        {
            "bufferView" : 4,
            "componentType" : 5126,
            "count" : 162,
            "max" : [
                2.011566162109375,
                0.9999831914901733
            ],
            "min" : [
                0.008605379611253738,
                0.01385045051574707
            ],
            "type" : "VEC2"
        },
        {
            "bufferView" : 5,
            "componentType" : 5121,
            "count" : 96,
            "max" : [
                95
            ],
            "min" : [
                0
            ],
            "type" : "SCALAR"
        },
        {
            "bufferView" : 6,
            "componentType" : 5126,
            "count" : 96,
            "max" : [
                21.05861473083496,
                9.90389633178711,
                9.090612411499023
            ],
            "min" : [
                -21.061199188232422,
                8.774001121520996,
                -9.129908561706543
            ],
            "type" : "VEC3"
        },
        {
            "bufferView" : 7,
            "componentType" : 5126,
            "count" : 96,
            "max" : [
                0.4743780791759491,
                1,
                0.447952538728714
            ],
            "min" : [
                -0.4743771553039551,
                0.8798840045928955,
                -0.44795265793800354
            ],
            "type" : "VEC3"
        },
        {
            "bufferView" : 8,
            "componentType" : 5126,
            "count" : 96,
            "max" : [
                0.7880244255065918,
                0.4487178921699524,
                0.615644097328186,
                1
            ],
            "min" : [
                -0.05837775766849518,
                -0.4487178921699524,
                -0.9984411597251892,
                1
            ],
            "type" : "VEC4"
        },
        {
            "bufferView" : 9,
            "componentType" : 5126,
            "count" : 96,
            "max" : [
                1.4636597633361816,
                2.9962589740753174
            ],
            "min" : [
                -0.46365970373153687,
                -1.9962589740753174
            ],
            "type" : "VEC2"
        },
        {
            "bufferView" : 10,
            "componentType" : 5121,
            "count" : 264,
            "max" : [
                241
            ],
            "min" : [
                0
            ],
            "type" : "SCALAR"
        },
        {
            "bufferView" : 11,
            "componentType" : 5126,
            "count" : 242,
            "max" : [
                21.508934020996094,
                9.374001502990723,
                9.54140567779541
            ],
            "min" : [
                -21.50995635986328,
                8.774001121520996,
                -9.545701026916504
            ],
            "type" : "VEC3"
        },
        {
            "bufferView" : 12,
            "componentType" : 5126,
            "count" : 242,
            "max" : [
                0.9984130263328552,
                1,
                0.998441755771637
            ],
            "min" : [
                -0.9984409213066101,
                -5.959884106232494e-07,
                -0.9984414577484131
            ],
            "type" : "VEC3"
        },
        {
            "bufferView" : 13,
            "componentType" : 5126,
            "count" : 242,
            "max" : [
                0.9984418153762817,
                4.541541329672327e-06,
                0.9984409809112549,
                1
            ],
            "min" : [
                -0.9999954104423523,
                -4.320548669056734e-06,
                -0.9984425902366638,
                1
            ],
            "type" : "VEC4"
        },
        {
            "bufferView" : 14,
            "componentType" : 5126,
            "count" : 242,
            "max" : [
                1.895246148109436,
                1.9725840091705322
            ],
            "min" : [
                -0.8952441215515137,
                -0.9700688123703003
            ],
            "type" : "VEC2"
        },
        {
            "bufferView" : 15,
            "componentType" : 5123,
            "count" : 432,
            "max" : [
                357
            ],
            "min" : [
                0
            ],
            "type" : "SCALAR"
        },
        {
            "bufferView" : 16,
            "componentType" : 5126,
            "count" : 358,
            "max" : [
                19.895034790039062,
                9.233001708984375,
                5.716393947601318
            ],
            "min" : [
                -16.718626022338867,
                8.728927612304688,
                -5.031980514526367
            ],
            "type" : "VEC3"
        },
        {
            "bufferView" : 17,
            "componentType" : 5126,
            "count" : 358,
            "max" : [
                0.9971007108688354,
                1,
                0.9971238374710083
            ],
            "min" : [
                -0.9971238970756531,
                -1,
                -0.9971238970756531
            ],
            "type" : "VEC3"
        },
        {
            "bufferView" : 18,
            "componentType" : 5126,
            "count" : 358,
            "max" : [
                1,
                2.645318772920291e-07,
                0.9971238970756531,
                1
            ],
            "min" : [
                0.07578876614570618,
                -1.9539201900897751e-07,
                0,
                -1
            ],
            "type" : "VEC4"
        },
        {
            "bufferView" : 19,
            "componentType" : 5126,
            "count" : 358,
            "max" : [
                25.274999618530273,
                16.860000610351562
            ],
            "min" : [
                -25.274999618530273,
                -14.860000610351562
            ],
            "type" : "VEC2"
        },
        {
            "bufferView" : 20,
            "componentType" : 5123,
            "count" : 1080,
            "max" : [
                959
            ],
            "min" : [
                0
            ],
            "type" : "SCALAR"
        },
        {
            "bufferView" : 21,
            "componentType" : 5126,
            "count" : 960,
            "max" : [
                19.065885543823242,
                9.620684623718262,
                7.787912368774414
            ],
            "min" : [
                -16.927555084228516,
                8.7589693069458,
                -7.991602897644043
            ],
            "type" : "VEC3"
        },
        {
            "bufferView" : 22,
            "componentType" : 5126,
            "count" : 960,
            "max" : [
                0.9971007108688354,
                1,
                0.9971239566802979
            ],
            "min" : [
                -0.9971243143081665,
                -1.6553105979255633e-06,
                -0.9971240758895874
            ],
            "type" : "VEC3"
        },
        {
            "bufferView" : 23,
            "componentType" : 5126,
            "count" : 960,
            "max" : [
                1,
                4.219165475660702e-06,
                0.9971246719360352,
                1
            ],
            "min" : [
                -0.9971239566802979,
                -4.219165020913351e-06,
                -0.07579372823238373,
                -1
            ],
            "type" : "VEC4"
        },
        {
            "bufferView" : 24,
            "componentType" : 5126,
            "count" : 960,
            "max" : [
                1,
                1
            ],
            "min" : [
                0,
                0
            ],
            "type" : "VEC2"
        },
        {
            "bufferView" : 25,
            "componentType" : 5121,
            "count" : 12,
            "max" : [
                11
            ],
            "min" : [
                0
            ],
            "type" : "SCALAR"
        },
        {
            "bufferView" : 26,
            "componentType" : 5126,
            "count" : 12,
            "max" : [
                2.3285512924194336,
                2.813852548599243,
                8.40121078491211
            ],
            "min" : [
                -1.0993229150772095,
                0,
                -8.47438907623291
            ],
            "type" : "VEC3"
        },
        {
            "bufferView" : 27,
            "componentType" : 5126,
            "count" : 12,
            "max" : [
                0.055776674300432205,
                1.0044122866759153e-08,
                0.9984432458877563
            ],
            "min" : [
                -0.05579878389835358,
                -6.649667056990438e-07,
                -0.9984420537948608
            ],
            "type" : "VEC3"
        },
        {
            "bufferView" : 28,
            "componentType" : 5126,
            "count" : 12,
            "max" : [
                0.9984433054924011,
                6.0383873431762904e-15,
                0.055798791348934174,
                1
            ],
            "min" : [
                -0.9984420537948608,
                0,
                -0.055776678025722504,
                1
            ],
            "type" : "VEC4"
        },
        {
            "bufferView" : 29,
            "componentType" : 5126,
            "count" : 12,
            "max" : [
                0.9831268787384033,
                1
            ],
            "min" : [
                0,
                0
            ],
            "type" : "VEC2"
        }
    ],
    "asset" : {
        "generator" : "Khronos Blender glTF 2.0 I/O",
        "version" : "2.0"
    },
    "bufferViews" : [
        {
            "buffer" : 0,
            "byteLength" : 180,
            "byteOffset" : 0,
            "target" : 34963
        },
        {
            "buffer" : 0,
            "byteLength" : 1944,
            "byteOffset" : 180,
            "target" : 34962
        },
        {
            "buffer" : 0,
            "byteLength" : 1944,
            "byteOffset" : 2124,
            "target" : 34962
        },
        {
            "buffer" : 0,
            "byteLength" : 2592,
            "byteOffset" : 4068,
            "target" : 34962
        },
        {
            "buffer" : 0,
            "byteLength" : 1296,
            "byteOffset" : 6660,
            "target" : 34962
        },
        {
            "buffer" : 0,
            "byteLength" : 96,
            "byteOffset" : 7956,
            "target" : 34963
        },
        {
            "buffer" : 0,
            "byteLength" : 1152,
            "byteOffset" : 8052,
            "target" : 34962
        },
        {
            "buffer" : 0,
            "byteLength" : 1152,
            "byteOffset" : 9204,
            "target" : 34962
        },
        {
            "buffer" : 0,
            "byteLength" : 1536,
            "byteOffset" : 10356,
            "target" : 34962
        },
        {
            "buffer" : 0,
            "byteLength" : 768,
            "byteOffset" : 11892,
            "target" : 34962
        },
        {
            "buffer" : 0,
            "byteLength" : 264,
            "byteOffset" : 12660,
            "target" : 34963
        },
        {
            "buffer" : 0,
            "byteLength" : 2904,
            "byteOffset" : 12924,
            "target" : 34962
        },
        {
            "buffer" : 0,
            "byteLength" : 2904,
            "byteOffset" : 15828,
            "target" : 34962
        },
        {
            "buffer" : 0,
            "byteLength" : 3872,
            "byteOffset" : 18732,
            "target" : 34962
        },
        {
            "buffer" : 0,
            "byteLength" : 1936,
            "byteOffset" : 22604,
            "target" : 34962
        },
        {
            "buffer" : 0,
            "byteLength" : 864,
            "byteOffset" : 24540,
            "target" : 34963
        },
        {
            "buffer" : 0,
            "byteLength" : 4296,
            "byteOffset" : 25404,
            "target" : 34962
        },
        {
            "buffer" : 0,
            "byteLength" : 4296,
            "byteOffset" : 29700,
            "target" : 34962
        },
        {
            "buffer" : 0,
            "byteLength" : 5728,
            "byteOffset" : 33996,
            "target" : 34962
        },
        {
            "buffer" : 0,
            "byteLength" : 2864,
            "byteOffset" : 39724,
            "target" : 34962
        },
        {
            "buffer" : 0,
            "byteLength" : 2160,
            "byteOffset" : 42588,
            "target" : 34963
        },
        {
            "buffer" : 0,
            "byteLength" : 11520,
            "byteOffset" : 44748,
            "target" : 34962
        },
        {
            "buffer" : 0,
            "byteLength" : 11520,
            "byteOffset" : 56268,
            "target" : 34962
        },
        {
            "buffer" : 0,
            "byteLength" : 15360,
            "byteOffset" : 67788,
            "target" : 34962
        },
        {
            "buffer" : 0,
            "byteLength" : 7680,
            "byteOffset" : 83148,
            "target" : 34962
        },
        {
            "buffer" : 0,
            "byteLength" : 12,
            "byteOffset" : 90828,
            "target" : 34963
        },
        {
            "buffer" : 0,
            "byteLength" : 144,
            "byteOffset" : 90840,
            "target" : 34962
        },
        {
            "buffer" : 0,
            "byteLength" : 144,
            "byteOffset" : 90984,
            "target" : 34962
        },
        {
            "buffer" : 0,
            "byteLength" : 192,
            "byteOffset" : 91128,
            "target" : 34962
        },
        {
            "buffer" : 0,
            "byteLength" : 96,
            "byteOffset" : 91320,
            "target" : 34962
        }
    ],
    "buffers" : [
        {
            "byteLength" : 91416,
            "uri" : "0.bin"
        }
    ],
    "extensions" : {},
    "extensionsRequired" : [
        "KHR_texture_transform"
    ],
    "extensionsUsed" : [
        "KHR_texture_transform"
    ],
    "images" : [
        {
            "uri" : "820FDB0880D1E232AF54EEC46375FB0E.jpg"
        },
        {
            "uri" : "8421A3C2814B7819D526994805B6ECEE.jpg"
        },
        {
            "uri" : "A9842C4A49580D6FEAEBACFD84D429A7.jpg"
        },
        {
            "uri" : "44F73B6B29BA04E8BD9FADCF32448512.jpg"
        },
        {
            "uri" : "C7AA08014B31A4BD9B854454713610D4.jpg"
        }
    ],
    "materials" : [
        {
            "name" : "AM_131_003_004_diff.001",
            "pbrMetallicRoughness" : {
                "baseColorTexture" : {
                    "extensions" : {
                        "KHR_texture_transform" : {
                            "offset" : [
                                0,
                                0
                            ],
                            "rotation" : 0,
                            "scale" : [
                                1,
                                1
                            ]
                        }
                    },
                    "index" : 0
                },
                "metallicFactor" : 0.10000000149011612
            }
        },
        {
            "name" : "AM_131_014_001_diff.001",
            "pbrMetallicRoughness" : {
                "metallicFactor" : 0.09999999403953552
            }
        },
        {
            "name" : "AM_131_roof_001_diff.001",
            "pbrMetallicRoughness" : {
                "baseColorTexture" : {
                    "extensions" : {
                        "KHR_texture_transform" : {
                            "offset" : [
                                0,
                                0
                            ],
                            "rotation" : 0,
                            "scale" : [
                                1,
                                1
                            ]
                        }
                    },
                    "index" : 1
                },
                "metallicFactor" : 0.10000000149011612
            }
        },
        {
            "name" : "am_131_vents_001_diff.001",
            "pbrMetallicRoughness" : {
                "baseColorTexture" : {
                    "extensions" : {
                        "KHR_texture_transform" : {
                            "offset" : [
                                0,
                                0
                            ],
                            "rotation" : 0,
                            "scale" : [
                                1,
                                1
                            ]
                        }
                    },
                    "index" : 2
                },
                "metallicFactor" : 0.10000000149011612
            }
        },
        {
            "name" : "am_131_vents_007_diff.001",
            "pbrMetallicRoughness" : {
                "baseColorTexture" : {
                    "extensions" : {
                        "KHR_texture_transform" : {
                            "offset" : [
                                0,
                                0
                            ],
                            "rotation" : 0,
                            "scale" : [
                                1,
                                1
                            ]
                        }
                    },
                    "index" : 3
                },
                "metallicFactor" : 0.10000000149011612
            }
        },
        {
            "name" : "Y001_damen.001",
            "pbrMetallicRoughness" : {
                "baseColorTexture" : {
                    "extensions" : {
                        "KHR_texture_transform" : {
                            "offset" : [
                                0,
                                0
                            ],
                            "rotation" : 0,
                            "scale" : [
                                1,
                                1
                            ]
                        }
                    },
                    "index" : 4
                },
                "metallicFactor" : 0.10000000149011612
            }
        }
    ],
    "meshes" : [
        {
            "name" : "Building_052_high.001",
            "primitives" : [
                {
                    "attributes" : {
                        "NORMAL" : 2,
                        "POSITION" : 1,
                        "TANGENT" : 3,
                        "TEXCOORD_0" : 4
                    },
                    "indices" : 0,
                    "material" : 1
                },
                {
                    "attributes" : {
                        "NORMAL" : 7,
                        "POSITION" : 6,
                        "TANGENT" : 8,
                        "TEXCOORD_0" : 9
                    },
                    "indices" : 5,
                    "material" : 2
                },
                {
                    "attributes" : {
                        "NORMAL" : 12,
                        "POSITION" : 11,
                        "TANGENT" : 13,
                        "TEXCOORD_0" : 14
                    },
                    "indices" : 10,
                    "material" : 0
                },
                {
                    "attributes" : {
                        "NORMAL" : 17,
                        "POSITION" : 16,
                        "TANGENT" : 18,
                        "TEXCOORD_0" : 19
                    },
                    "indices" : 15,
                    "material" : 4
                },
                {
                    "attributes" : {
                        "NORMAL" : 22,
                        "POSITION" : 21,
                        "TANGENT" : 23,
                        "TEXCOORD_0" : 24
                    },
                    "indices" : 20,
                    "material" : 3
                },
                {
                    "attributes" : {
                        "NORMAL" : 27,
                        "POSITION" : 26,
                        "TANGENT" : 28,
                        "TEXCOORD_0" : 29
                    },
                    "indices" : 25,
                    "material" : 5
                }
            ]
        }
    ],
    "nodes" : [
        {
            "mesh" : 0,
            "name" : "Building_052_high.001",
            "scale" : [
                0.10000000149011612,
                0.10000000149011612,
                0.10000000149011612
            ]
        },
        {
            "name" : "Camera",
            "rotation" : [
                0.483536034822464,
                0.33687159419059753,
                -0.20870360732078552,
                0.7804827094078064
            ],
            "translation" : [
                6,
                5,
                5
            ]
        },
        {
            "name" : "Lamp",
            "rotation" : [
                0.16907575726509094,
                0.7558802962303162,
                -0.27217137813568115,
                0.570947527885437
            ],
            "scale" : [
                1,
                1,
                0.9999999403953552
            ],
            "translation" : [
                4.076245307922363,
                5.903861999511719,
                -1.0054539442062378
            ]
        }
    ],
    "samplers" : [
        {}
    ],
    "scene" : 0,
    "scenes" : [
        {
            "name" : "Scene",
            "nodes" : [
                2,
                1,
                0
            ]
        }
    ],
    "textures" : [
        {
            "sampler" : 0,
            "source" : 0
        },
        {
            "sampler" : 0,
            "source" : 1
        },
        {
            "sampler" : 0,
            "source" : 2
        },
        {
            "sampler" : 0,
            "source" : 3
        },
        {
            "sampler" : 0,
            "source" : 4
        }
    ]
}
