{
  "materials": [
    {
      "name": "AM_131_014_001_diff",
      "pbrMetallicRoughness": {
        "baseColorTexture": {
          "index": 0,
          "texCoord": 0
        },
        "baseColorFactor": [
          0.296078473,
          0.296078473,
          0.296078473,
          1.0
        ],
        "metallicFactor": 0.099999994,
        "roughnessFactor": 1
      },
      "alphaMode": "OPAQUE",
      "doubleSided": true
    },
    {
      "name": "AM_131_roof_001_diff",
      "pbrMetallicRoughness": {
        "baseColorTexture": {
          "index": 1,
          "texCoord": 0
        },
        "baseColorFactor": [
          1.0,
          1.0,
          1.0,
          1.0
        ],
        "metallicFactor": 0.1,
        "roughnessFactor": 1
      },
      "alphaMode": "OPAQUE",
      "doubleSided": true
    },
    {
      "name": "AM_131_003_004_diff",
      "pbrMetallicRoughness": {
        "baseColorTexture": {
          "index": 2,
          "texCoord": 0
        },
        "baseColorFactor": [
          1.0,
          1.0,
          1.0,
          1.0
        ],
        "metallicFactor": 0.1,
        "roughnessFactor": 1
      },
      "alphaMode": "OPAQUE",
      "doubleSided": true
    },
    {
      "name": "am_131_vents_007_diff",
      "pbrMetallicRoughness": {
        "baseColorTexture": {
          "index": 3,
          "texCoord": 0
        },
        "baseColorFactor": [
          1.0,
          1.0,
          1.0,
          1.0
        ],
        "metallicFactor": 0.1,
        "roughnessFactor": 1
      },
      "alphaMode": "OPAQUE",
      "doubleSided": true
    },
    {
      "name": "am_131_vents_001_diff",
      "pbrMetallicRoughness": {
        "baseColorTexture": {
          "index": 4,
          "texCoord": 0
        },
        "baseColorFactor": [
          1.0,
          1.0,
          1.0,
          1.0
        ],
        "metallicFactor": 0.1,
        "roughnessFactor": 1
      },
      "alphaMode": "OPAQUE",
      "doubleSided": true
    },
    {
      "name": "Y001_damen",
      "pbrMetallicRoughness": {
        "baseColorTexture": {
          "index": 5,
          "texCoord": 0
        },
        "baseColorFactor": [
          1.0,
          1.0,
          1.0,
          1.0
        ],
        "metallicFactor": 0.1,
        "roughnessFactor": 1
      },
      "alphaMode": "OPAQUE"
    }
  ],
  "images": [
    {
      "uri": "A3C25E4A9C59DE496FF50C02697468B3.jpg"
    },
    {
      "uri": "8421A3C2814B7819D526994805B6ECEE.jpg"
    },
    {
      "uri": "820FDB0880D1E232AF54EEC46375FB0E.jpg"
    },
    {
      "uri": "44F73B6B29BA04E8BD9FADCF32448512.jpg"
    },
    {
      "uri": "A9842C4A49580D6FEAEBACFD84D429A7.jpg"
    },
    {
      "uri": "C7AA08014B31A4BD9B854454713610D4.jpg"
    }
  ],
  "textures": [
    {
      "name": "AM_131_014_001_diff.jpg",
      "sampler": 0,
      "source": 0
    },
    {
      "name": "AM_131_roof_001_diff.jpg",
      "sampler": 0,
      "source": 1
    },
    {
      "name": "AM_131_003_004_diff.jpg",
      "sampler": 0,
      "source": 2
    },
    {
      "name": "am_131_vents_007_diff.jpg",
      "sampler": 0,
      "source": 3
    },
    {
      "name": "am_131_vents_001_diff.jpg",
      "sampler": 0,
      "source": 4
    },
    {
      "name": "Y001_damen.jpg",
      "sampler": 0,
      "source": 5
    }
  ],
  "meshes": [
    {
      "name": "Building_052_high",
      "primitives": [
        {
          "material": 0,
          "mode": 4,
          "indices": 0,
          "attributes": {
            "NORMAL": 2,
            "POSITION": 1,
            "TEXCOORD_0": 3
          }
        },
        {
          "material": 1,
          "mode": 4,
          "indices": 4,
          "attributes": {
            "NORMAL": 6,
            "POSITION": 5,
            "TEXCOORD_0": 7
          }
        },
        {
          "material": 2,
          "mode": 4,
          "indices": 8,
          "attributes": {
            "NORMAL": 10,
            "POSITION": 9,
            "TEXCOORD_0": 11
          }
        },
        {
          "material": 3,
          "mode": 4,
          "indices": 12,
          "attributes": {
            "NORMAL": 14,
            "POSITION": 13,
            "TEXCOORD_0": 15
          }
        },
        {
          "material": 4,
          "mode": 4,
          "indices": 16,
          "attributes": {
            "NORMAL": 18,
            "POSITION": 17,
            "TEXCOORD_0": 19
          }
        },
        {
          "material": 5,
          "mode": 4,
          "indices": 20,
          "attributes": {
            "NORMAL": 22,
            "POSITION": 21,
            "TEXCOORD_0": 23
          }
        }
      ]
    }
  ],
  "buffers": [
    {
      "byteLength": 46880,
      "uri": "BDAD00747E09F296224EF4838B566D38.bin"
    }
  ],
  "nodes": [
    {
      "name": "RootNode",
      "translation": [
        0.0,
        0.0,
        0.0
      ],
      "rotation": [
        0.0,
        0.0,
        0.0,
        1.0
      ],
      "scale": [
        1.0,
        1.0,
        1.0
      ],
      "children": [
        1
      ]
    },
    {
      "name": "body",
      "translation": [
        0.000212788581848145,
        0.0,
        0.0
      ],
      "rotation": [
        -0.70710676908493,
        0.0,
        0.0,
        0.70710676908493
      ],
      "scale": [
        1.0,
        1.0,
        1.0
      ],
      "children": [
        2
      ]
    },
    {
      "name": "Building_052_high",
      "translation": [
        0.0,
        0.0,
        0.0
      ],
      "rotation": [
        -3.53457853512418E-33,
        9.86495407402329E-35,
        -0.0278989803045988,
        0.999610722064972
      ],
      "scale": [
        0.871472597122192,
        0.871472597122192,
        0.871472537517548
      ],
      "mesh": 0
    }
  ],
  "asset": {
    "generator": "FBX2glTF",
    "version": "2.0"
  },
  "scene": 0,
  "bufferViews": [
    {
      "buffer": 0,
      "byteLength": 360,
      "byteOffset": 0,
      "target": 34963
    },
    {
      "buffer": 0,
      "byteLength": 1392,
      "byteOffset": 360,
      "target": 34962
    },
    {
      "buffer": 0,
      "byteLength": 1392,
      "byteOffset": 1752,
      "target": 34962
    },
    {
      "buffer": 0,
      "byteLength": 928,
      "byteOffset": 3144,
      "target": 34962
    },
    {
      "buffer": 0,
      "byteLength": 192,
      "byteOffset": 4072,
      "target": 34963
    },
    {
      "buffer": 0,
      "byteLength": 744,
      "byteOffset": 4264,
      "target": 34962
    },
    {
      "buffer": 0,
      "byteLength": 744,
      "byteOffset": 5008,
      "target": 34962
    },
    {
      "buffer": 0,
      "byteLength": 496,
      "byteOffset": 5752,
      "target": 34962
    },
    {
      "buffer": 0,
      "byteLength": 528,
      "byteOffset": 6248,
      "target": 34963
    },
    {
      "buffer": 0,
      "byteLength": 1704,
      "byteOffset": 6776,
      "target": 34962
    },
    {
      "buffer": 0,
      "byteLength": 1704,
      "byteOffset": 8480,
      "target": 34962
    },
    {
      "buffer": 0,
      "byteLength": 1136,
      "byteOffset": 10184,
      "target": 34962
    },
    {
      "buffer": 0,
      "byteLength": 864,
      "byteOffset": 11320,
      "target": 34963
    },
    {
      "buffer": 0,
      "byteLength": 3456,
      "byteOffset": 12184,
      "target": 34962
    },
    {
      "buffer": 0,
      "byteLength": 3456,
      "byteOffset": 15640,
      "target": 34962
    },
    {
      "buffer": 0,
      "byteLength": 2304,
      "byteOffset": 19096,
      "target": 34962
    },
    {
      "buffer": 0,
      "byteLength": 2160,
      "byteOffset": 21400,
      "target": 34963
    },
    {
      "buffer": 0,
      "byteLength": 8640,
      "byteOffset": 23560,
      "target": 34962
    },
    {
      "buffer": 0,
      "byteLength": 8640,
      "byteOffset": 32200,
      "target": 34962
    },
    {
      "buffer": 0,
      "byteLength": 5760,
      "byteOffset": 40840,
      "target": 34962
    },
    {
      "buffer": 0,
      "byteLength": 24,
      "byteOffset": 46600,
      "target": 34963
    },
    {
      "buffer": 0,
      "byteLength": 96,
      "byteOffset": 46624,
      "target": 34962
    },
    {
      "buffer": 0,
      "byteLength": 96,
      "byteOffset": 46720,
      "target": 34962
    },
    {
      "buffer": 0,
      "byteLength": 64,
      "byteOffset": 46816,
      "target": 34962
    }
  ],
  "scenes": [
    {
      "name": "Root Scene",
      "nodes": [
        0
      ]
    }
  ],
  "accessors": [
    {
      "componentType": 5123,
      "type": "SCALAR",
      "count": 180,
      "bufferView": 0,
      "byteOffset": 0
    },
    {
      "componentType": 5126,
      "type": "VEC3",
      "count": 116,
      "bufferView": 1,
      "byteOffset": 0,
      "min": [
        -21.5099563598633,
        -9.54140567779541,
        0.0
      ],
      "max": [
        21.5089340209961,
        9.5457010269165,
        9.21565246582031
      ]
    },
    {
      "componentType": 5126,
      "type": "VEC3",
      "count": 116,
      "bufferView": 2,
      "byteOffset": 0
    },
    {
      "componentType": 5126,
      "type": "VEC2",
      "count": 116,
      "bufferView": 3,
      "byteOffset": 0
    },
    {
      "componentType": 5123,
      "type": "SCALAR",
      "count": 96,
      "bufferView": 4,
      "byteOffset": 0
    },
    {
      "componentType": 5126,
      "type": "VEC3",
      "count": 62,
      "bufferView": 5,
      "byteOffset": 0,
      "min": [
        -21.0611991882324,
        -9.09061241149902,
        8.774001121521
      ],
      "max": [
        21.058614730835,
        9.12990856170654,
        9.90389633178711
      ]
    },
    {
      "componentType": 5126,
      "type": "VEC3",
      "count": 62,
      "bufferView": 6,
      "byteOffset": 0
    },
    {
      "componentType": 5126,
      "type": "VEC2",
      "count": 62,
      "bufferView": 7,
      "byteOffset": 0
    },
    {
      "componentType": 5123,
      "type": "SCALAR",
      "count": 264,
      "bufferView": 8,
      "byteOffset": 0
    },
    {
      "componentType": 5126,
      "type": "VEC3",
      "count": 142,
      "bufferView": 9,
      "byteOffset": 0,
      "min": [
        -21.5099563598633,
        -9.54140567779541,
        8.774001121521
      ],
      "max": [
        21.5089340209961,
        9.5457010269165,
        9.37400150299072
      ]
    },
    {
      "componentType": 5126,
      "type": "VEC3",
      "count": 142,
      "bufferView": 10,
      "byteOffset": 0
    },
    {
      "componentType": 5126,
      "type": "VEC2",
      "count": 142,
      "bufferView": 11,
      "byteOffset": 0
    },
    {
      "componentType": 5123,
      "type": "SCALAR",
      "count": 432,
      "bufferView": 12,
      "byteOffset": 0
    },
    {
      "componentType": 5126,
      "type": "VEC3",
      "count": 288,
      "bufferView": 13,
      "byteOffset": 0,
      "min": [
        -16.7186260223389,
        -5.71639394760132,
        8.72892761230469
      ],
      "max": [
        19.8950347900391,
        5.03198051452637,
        9.23300170898438
      ]
    },
    {
      "componentType": 5126,
      "type": "VEC3",
      "count": 288,
      "bufferView": 14,
      "byteOffset": 0
    },
    {
      "componentType": 5126,
      "type": "VEC2",
      "count": 288,
      "bufferView": 15,
      "byteOffset": 0
    },
    {
      "componentType": 5123,
      "type": "SCALAR",
      "count": 1080,
      "bufferView": 16,
      "byteOffset": 0
    },
    {
      "componentType": 5126,
      "type": "VEC3",
      "count": 720,
      "bufferView": 17,
      "byteOffset": 0,
      "min": [
        -16.9275550842285,
        -7.78791236877441,
        8.7589693069458
      ],
      "max": [
        19.0658855438232,
        7.99160289764404,
        9.62068462371826
      ]
    },
    {
      "componentType": 5126,
      "type": "VEC3",
      "count": 720,
      "bufferView": 18,
      "byteOffset": 0
    },
    {
      "componentType": 5126,
      "type": "VEC2",
      "count": 720,
      "bufferView": 19,
      "byteOffset": 0
    },
    {
      "componentType": 5123,
      "type": "SCALAR",
      "count": 12,
      "bufferView": 20,
      "byteOffset": 0
    },
    {
      "componentType": 5126,
      "type": "VEC3",
      "count": 8,
      "bufferView": 21,
      "byteOffset": 0,
      "min": [
        -1.09932291507721,
        -8.40121078491211,
        0.0
      ],
      "max": [
        2.32855129241943,
        8.47438907623291,
        2.81385254859924
      ]
    },
    {
      "componentType": 5126,
      "type": "VEC3",
      "count": 8,
      "bufferView": 22,
      "byteOffset": 0
    },
    {
      "componentType": 5126,
      "type": "VEC2",
      "count": 8,
      "bufferView": 23,
      "byteOffset": 0
    }
  ],
  "samplers": [
    {}
  ]
}
