{
	"asset": {
		"generator": "Unity 5.3.4f1",
		"extras": {
			"exporterVersion" : "2.1.1"
		},
		"version": "2.0"
	},
	"accessors": [
		{
			"bufferView": 2,
			"byteOffset": 0,
			"componentType": 5126,
			"count": 2561,
			"max": [ 1.46409, -0.01500168, -0.14494 ],
			"min": [ -1.695263, -3.124017, -0.3146351 ],
			"type": "VEC3"
		},
		{
			"bufferView": 2,
			"byteOffset": 30732,
			"componentType": 5126,
			"count": 2561,
			"max": [ 0.9967998, 0.9983703, 0.9998994 ],
			"min": [ -0.9957784, -0.9997689, -0.9989597 ],
			"type": "VEC3"
		},
		{
			"bufferView": 3,
			"byteOffset": 0,
			"componentType": 5126,
			"count": 2561,
			"max": [ 1, 1, 1, 1 ],
			"min": [ 1, 1, 1, 1 ],
			"type": "VEC4"
		},
		{
			"bufferView": 1,
			"byteOffset": 0,
			"componentType": 5126,
			"count": 2561,
			"max": [ 16.29677, 16.04508 ],
			"min": [ -15.29677, -15.04508 ],
			"type": "VEC2"
		},
		{
			"bufferView": 1,
			"byteOffset": 20488,
			"componentType": 5126,
			"count": 2561,
			"max": [ 0.9990234, 0.9970703 ],
			"min": [ 0.0009765625, 0.0009765625 ],
			"type": "VEC2"
		},
		{
			"bufferView": 3,
			"byteOffset": 40976,
			"componentType": 5126,
			"count": 2561,
			"max": [ 1, 0.9999652, 0.9832817, 1 ],
			"min": [ -0.9999995, -0.9999582, -0.9806495, 1 ],
			"type": "VEC4"
		},
		{
			"bufferView": 0,
			"byteOffset": 0,
			"componentType": 5123,
			"count": 2034,
			"max": [ 806 ],
			"min": [ 0 ],
			"type": "SCALAR"
		},
		{
			"bufferView": 0,
			"byteOffset": 4068,
			"componentType": 5123,
			"count": 2748,
			"max": [ 1858 ],
			"min": [ 807 ],
			"type": "SCALAR"
		},
		{
			"bufferView": 0,
			"byteOffset": 9564,
			"componentType": 5123,
			"count": 1650,
			"max": [ 2560 ],
			"min": [ 1859 ],
			"type": "SCALAR"
		},
		{
			"bufferView": 2,
			"byteOffset": 61464,
			"componentType": 5126,
			"count": 15424,
			"max": [ 1.604697, 0.122291, 0 ],
			"min": [ -1.93164, -3.414684, -0.2370113 ],
			"type": "VEC3"
		},
		{
			"bufferView": 2,
			"byteOffset": 246552,
			"componentType": 5126,
			"count": 15424,
			"max": [ 1, 1, 1 ],
			"min": [ -1, -1, -1 ],
			"type": "VEC3"
		},
		{
			"bufferView": 3,
			"byteOffset": 81952,
			"componentType": 5126,
			"count": 15424,
			"max": [ 1, 1, 1, 1 ],
			"min": [ 1, 1, 1, 1 ],
			"type": "VEC4"
		},
		{
			"bufferView": 1,
			"byteOffset": 40976,
			"componentType": 5126,
			"count": 15424,
			"max": [ 4.034478, 4.028024 ],
			"min": [ -3.036976, -3.020782 ],
			"type": "VEC2"
		},
		{
			"bufferView": 1,
			"byteOffset": 164368,
			"componentType": 5126,
			"count": 15424,
			"max": [ 0.9985352, 0.9995117 ],
			"min": [ 0.0004882813, -0.0004882813 ],
			"type": "VEC2"
		},
		{
			"bufferView": 3,
			"byteOffset": 328736,
			"componentType": 5126,
			"count": 15424,
			"max": [ 1, 1, 0.9999076, 1 ],
			"min": [ -1, -1, -0.9992493, 1 ],
			"type": "VEC4"
		},
		{
			"bufferView": 0,
			"byteOffset": 12864,
			"componentType": 5123,
			"count": 1440,
			"max": [ 901 ],
			"min": [ 0 ],
			"type": "SCALAR"
		},
		{
			"bufferView": 0,
			"byteOffset": 15744,
			"componentType": 5123,
			"count": 47619,
			"max": [ 15423 ],
			"min": [ 902 ],
			"type": "SCALAR"
		}
	],
	"buffers": [
		{
			"byteLength": 1405902,
			"uri": "Unity2GLTF.bin"
		}
	],
	"bufferViews": [
		{
			"buffer": 0,
			"byteLength": 110982,
			"byteOffset": 1294920,
			"target": 34963
		},
		{
			"buffer": 0,
			"byteLength": 287760,
			"byteOffset": 0,
			"byteStride": 8,
			"target": 34962
		},
		{
			"buffer": 0,
			"byteLength": 431640,
			"byteOffset": 287760,
			"byteStride": 12,
			"target": 34962
		},
		{
			"buffer": 0,
			"byteLength": 575520,
			"byteOffset": 719400,
			"byteStride": 16,
			"target": 34962
		}
	],
	"images": [
		{
			"uri": "Assets/3AAD45F741F6E90CB24377290C1CAE0A.png"
		},
		{
			"uri": "Assets/E3FE343571BA847D9CD8AD87CBED6D98.png"
		},
		{
			"uri": "Assets/1EC4065F99235B9471CDF98715A868F0.png"
		},
		{
			"uri": "Assets/FEDDA4DA1DFDFCE3D39478B978088F59.png"
		},
		{
			"uri": "Assets/89707A19DF456D94CB14C1C76CCA5038.png"
		},
		{
			"uri": "Assets/FAB670EB3928B796A36544A7A71C2685.png"
		}
	],
	"materials": [
		{
			"pbrMetallicRoughness": {
				"baseColorTexture" : {
					"index" : 0,
					"texCoord" : 0
				},
				"baseColorFactor": [0.7783984, 0.7783984, 0.7783984, 1],
				"metallicFactor": 0,
				"roughnessFactor": 0.6
			},
			"emissiveFactor": [0, 0, 0],
			"occlusionTexture" : {
				"index" : 1,
				"texCoord" : 1
			},
			"doubleSided": false,
			"name": "Material #12_01_02.bmp.bmp_jg_md (Instance)"
		},
		{
			"pbrMetallicRoughness": {
				"baseColorTexture" : {
					"index" : 2,
					"texCoord" : 0
				},
				"baseColorFactor": [0.7783984, 0.7783984, 0.7783984, 1],
				"metallicFactor": 0,
				"roughnessFactor": 0.6
			},
			"emissiveFactor": [0, 0, 0],
			"occlusionTexture" : {
				"index" : 1,
				"texCoord" : 1
			},
			"doubleSided": false,
			"name": "Material #13_01_02.bmp.bmp_jg_md (Instance)"
		},
		{
			"pbrMetallicRoughness": {
				"baseColorTexture" : {
					"index" : 3,
					"texCoord" : 0
				},
				"baseColorFactor": [0.7783984, 0.7783984, 0.7783984, 1],
				"metallicFactor": 0,
				"roughnessFactor": 0.6
			},
			"emissiveFactor": [0, 0, 0],
			"occlusionTexture" : {
				"index" : 1,
				"texCoord" : 1
			},
			"doubleSided": false,
			"name": "Material #11_01_02.bmp.bmp_jg_md (Instance)"
		},
		{
			"pbrMetallicRoughness": {
				"baseColorTexture" : {
					"index" : 4,
					"texCoord" : 0
				},
				"baseColorFactor": [0.7783984, 0.7783984, 0.7783984, 1],
				"metallicFactor": 0,
				"roughnessFactor": 0.6
			},
			"emissiveFactor": [0, 0, 0],
			"occlusionTexture" : {
				"index" : 5,
				"texCoord" : 1
			},
			"doubleSided": false,
			"name": "Material #113_01.bmp.bmp_jg_md (Instance)"
		},
		{
			"pbrMetallicRoughness": {
				"baseColorTexture" : {
					"index" : 3,
					"texCoord" : 0
				},
				"baseColorFactor": [0.7783984, 0.7783984, 0.7783984, 1],
				"metallicFactor": 0,
				"roughnessFactor": 0.6
			},
			"emissiveFactor": [0, 0, 0],
			"occlusionTexture" : {
				"index" : 5,
				"texCoord" : 1
			},
			"doubleSided": false,
			"name": "Material #11_01.bmp.bmp_jg_md (Instance)"
		}
	],
	"meshes": [
		{
			"name": "mesh_Object001_Instance_-45012Object001",
			"primitives": [
				{
					"attributes": {
						"POSITION": 0,
						"NORMAL": 1,
						"COLOR_0": 2,
						"TEXCOORD_0": 3,
						"TEXCOORD_1": 4,
						"TANGENT": 5
					},
					"indices": 6,
					"material": 0,
					"mode": 4
				},
				{
					"attributes": {
						"POSITION": 0,
						"NORMAL": 1,
						"COLOR_0": 2,
						"TEXCOORD_0": 3,
						"TEXCOORD_1": 4,
						"TANGENT": 5
					},
					"indices": 7,
					"material": 1,
					"mode": 4
				},
				{
					"attributes": {
						"POSITION": 0,
						"NORMAL": 1,
						"COLOR_0": 2,
						"TEXCOORD_0": 3,
						"TEXCOORD_1": 4,
						"TANGENT": 5
					},
					"indices": 8,
					"material": 2,
					"mode": 4
				}
			]
		},
		{
			"name": "mesh__01_Instance_-45014_01",
			"primitives": [
				{
					"attributes": {
						"POSITION": 9,
						"NORMAL": 10,
						"COLOR_0": 11,
						"TEXCOORD_0": 12,
						"TEXCOORD_1": 13,
						"TANGENT": 14
					},
					"indices": 15,
					"material": 3,
					"mode": 4
				},
				{
					"attributes": {
						"POSITION": 9,
						"NORMAL": 10,
						"COLOR_0": 11,
						"TEXCOORD_0": 12,
						"TEXCOORD_1": 13,
						"TANGENT": 14
					},
					"indices": 16,
					"material": 4,
					"mode": 4
				}
			]
		}
	],
	"nodes": [
		{
			"name": "UnityGlTF_correctionMatrix",
			"children": [
				1
			],
			"matrix": [-1, 0, -8.742278E-08, 0, 0, 1, 0, 0, 8.742278E-08, 0, -1, 0, 0, 0, 0, 1]
		},
		{
			"name": "node_World_-15834",
			"children": [
				2,
				3
			],
			"matrix": [1, 0, 0, 0, 0, 1, 0, 0, 0, 0, 1, 0, 0, 0, 0, 1]
		},
		{
			"name": "node_Buildings_-15840"
		},
		{
			"name": "node_FloorPlan_-15844",
			"children": [
				4,
				10,
				11,
				12,
				13,
				14,
				15,
				16,
				17,
				18,
				19,
				20,
				21,
				22,
				23,
				24,
				25,
				26,
				27,
				28,
				29
			]
		},
		{
			"name": "node_Placements_-15850",
			"children": [
				5
			]
		},
		{
			"name": "node__-44982",
			"children": [
				6
			],
			"translation": [ 7.541201, 0.01000023, -5.437952]
		},
		{
			"name": "node_RealObject_-44988",
			"children": [
				7
			]
		},
		{
			"name": "node_Body_-44994",
			"children": [
				8,
				9
			]
		},
		{
			"name": "node_Object001_-44998",
			"mesh": 0,
			"translation": [ 0.1634076, 0, 1.646196],
			"scale": [ 1, 1, 2.599675],
			"rotation": [-0.7071068, 0, 0, -0.7071068]
		},
		{
			"name": "node__01_-45006",
			"mesh": 1,
			"translation": [ 0.1634076, 0, 1.646196],
			"scale": [ 1, 1, 2.599675],
			"rotation": [-0.7071068, 0, 0, -0.7071068]
		},
		{
			"name": "node_Routes_-15866"
		},
		{
			"name": "node_Text3Ds_-15870"
		},
		{
			"name": "node_WayPoints_-15874"
		},
		{
			"name": "node_HeatmapObjs_-15878"
		},
		{
			"name": "node_PosPoints_-15882"
		},
		{
			"name": "node_PipeLines_-15886"
		},
		{
			"name": "node_LeakWaterLines_-15890"
		},
		{
			"name": "node_lines_-15894"
		},
		{
			"name": "node_curveLines_-15898"
		},
		{
			"name": "node_arrowLines_-15902"
		},
		{
			"name": "node_CombineWall_-15906"
		},
		{
			"name": "node_CombineFloor_-15910"
		},
		{
			"name": "node_CombineCeiling_-15914"
		},
		{
			"name": "node_CombineDoorOrWin_-15922"
		},
		{
			"name": "node_CombinePlacement_-15926"
		},
		{
			"name": "node_DoorOrWins_-15930"
		},
		{
			"name": "node_ArrowDataLines_-15934"
		},
		{
			"name": "node_Polygon_-15938"
		},
		{
			"name": "node_CubePolygon_-15942"
		},
		{
			"name": "node_ColliderCube_-15946",
			"scale": [ 0, 0, 0]
		}
	],
	"samplers": [
		{
			"magFilter": 9729,
			"minFilter": 9985,
			"wrapS": 10497,
			"wrapT": 10497
		}
	],
	"scenes": [
		{
			"name":"defaultScene",
			"nodes": [
				0
			]
		}
	],
	"scene": 0,
	"textures": [
		{
			"sampler": 0,
			"source": 0
		},
		{
			"sampler": 0,
			"source": 1
		},
		{
			"sampler": 0,
			"source": 2
		},
		{
			"sampler": 0,
			"source": 3
		},
		{
			"sampler": 0,
			"source": 4
		},
		{
			"sampler": 0,
			"source": 5
		}
	]
}