{
	"asset": {
		"generator": "Unity 5.3.4f1",
		"extras": {
			"exporterVersion" : "2.1.1"
		},
		"version": "2.0"
	},
	"accessors": [
		{
			"bufferView": 2,
			"byteOffset": 0,
			"componentType": 5126,
			"count": 288,
			"max": [ 25.5486, 0.1000005, 9.990185 ],
			"min": [ 7.797937, 0.1, -9.305448 ],
			"type": "VEC3"
		},
		{
			"bufferView": 2,
			"byteOffset": 3456,
			"componentType": 5126,
			"count": 288,
			"max": [ 1.16463E-07, 1, 7.649395E-08 ],
			"min": [ -1.16463E-07, -1, -7.649395E-08 ],
			"type": "VEC3"
		},
		{
			"bufferView": 1,
			"byteOffset": 0,
			"componentType": 5126,
			"count": 288,
			"max": [ 1, 55.01234 ],
			"min": [ 0, 0 ],
			"type": "VEC2"
		},
		{
			"bufferView": 1,
			"byteOffset": 2304,
			"componentType": 5126,
			"count": 288,
			"max": [ 1, 55.01234 ],
			"min": [ 0, 0 ],
			"type": "VEC2"
		},
		{
			"bufferView": 0,
			"byteOffset": 0,
			"componentType": 5123,
			"count": 288,
			"max": [ 287 ],
			"min": [ 0 ],
			"type": "SCALAR"
		},
		{
			"bufferView": 2,
			"byteOffset": 6912,
			"componentType": 5126,
			"count": 12,
			"max": [ 16.79352, 0.1, -7.814285 ],
			"min": [ 15.18969, 0.1, -21.21462 ],
			"type": "VEC3"
		},
		{
			"bufferView": 2,
			"byteOffset": 7056,
			"componentType": 5126,
			"count": 12,
			"max": [ 0, 1, 0 ],
			"min": [ 0, -1, 0 ],
			"type": "VEC3"
		},
		{
			"bufferView": 1,
			"byteOffset": 4608,
			"componentType": 5126,
			"count": 12,
			"max": [ 1, 13.36878 ],
			"min": [ 0, 0 ],
			"type": "VEC2"
		},
		{
			"bufferView": 1,
			"byteOffset": 4704,
			"componentType": 5126,
			"count": 12,
			"max": [ 1, 13.36878 ],
			"min": [ 0, 0 ],
			"type": "VEC2"
		},
		{
			"bufferView": 0,
			"byteOffset": 576,
			"componentType": 5123,
			"count": 12,
			"max": [ 11 ],
			"min": [ 0 ],
			"type": "SCALAR"
		}
	],
	"buffers": [
		{
			"byteLength": 12600,
			"uri": "Unity2GLTF.bin"
		}
	],
	"bufferViews": [
		{
			"buffer": 0,
			"byteLength": 600,
			"byteOffset": 12000,
			"target": 34963
		},
		{
			"buffer": 0,
			"byteLength": 4800,
			"byteOffset": 0,
			"byteStride": 8,
			"target": 34962
		},
		{
			"buffer": 0,
			"byteLength": 7200,
			"byteOffset": 4800,
			"byteStride": 12,
			"target": 34962
		}
	],
	"materials": [
		{
			"pbrMetallicRoughness": {
				"baseColorFactor": [1, 1, 1, 1],
				"metallicFactor": 0,
				"roughnessFactor": 0.6
			},
			"emissiveFactor": [0, 0, 0],
			"doubleSided": false,
			"name": "Standard"
		},
		{
			"pbrMetallicRoughness": {
				"baseColorFactor": [1, 1, 1, 1],
				"metallicFactor": 0,
				"roughnessFactor": 0.6
			},
			"emissiveFactor": [0, 0, 0],
			"doubleSided": false,
			"name": "Standard"
		}
	],
	"meshes": [
		{
			"name": "mesh_CurveLine_-53682CurveLine",
			"primitives": [
				{
					"attributes": {
						"POSITION": 0,
						"NORMAL": 1,
						"TEXCOORD_0": 2,
						"TEXCOORD_1": 3
					},
					"indices": 4,
					"material": 0,
					"mode": 4
				}
			]
		},
		{
			"name": "mesh_CurveLine_-78992CurveLine",
			"primitives": [
				{
					"attributes": {
						"POSITION": 5,
						"NORMAL": 6,
						"TEXCOORD_0": 7,
						"TEXCOORD_1": 8
					},
					"indices": 9,
					"material": 1,
					"mode": 4
				}
			]
		}
	],
	"nodes": [
		{
			"name": "UnityGlTF_correctionMatrix",
			"children": [
				1
			],
			"matrix": [-1, 0, -8.742278E-08, 0, 0, 1, 0, 0, 8.742278E-08, 0, -1, 0, 0, 0, 0, 1]
		},
		{
			"name": "node_World_-15834",
			"children": [
				2,
				3
			],
			"matrix": [1, 0, 0, 0, 0, 1, 0, 0, 0, 0, 1, 0, 0, 0, 0, 1]
		},
		{
			"name": "node_Buildings_-15840"
		},
		{
			"name": "node_FloorPlan_-15844",
			"children": [
				4,
				5,
				6,
				7,
				8,
				9,
				10,
				11,
				12,
				13,
				30,
				31,
				32,
				33,
				34,
				35,
				36,
				37,
				38,
				39,
				40
			]
		},
		{
			"name": "node_Placements_-15850"
		},
		{
			"name": "node_Routes_-15866"
		},
		{
			"name": "node_Text3Ds_-15870"
		},
		{
			"name": "node_WayPoints_-15874"
		},
		{
			"name": "node_HeatmapObjs_-15878"
		},
		{
			"name": "node_PosPoints_-15882"
		},
		{
			"name": "node_PipeLines_-15886"
		},
		{
			"name": "node_LeakWaterLines_-15890"
		},
		{
			"name": "node_lines_-15894"
		},
		{
			"name": "node_curveLines_-15898",
			"children": [
				14,
				26
			]
		},
		{
			"name": "node_CurveLine_-53606",
			"mesh": 0,
			"children": [
				15,
				16,
				17,
				18,
				19,
				20,
				21,
				22,
				23,
				24,
				25
			],
			"translation": [ 0, -1.039988, 0]
		},
		{
			"name": "node_CurveLinePoint_-53620",
			"translation": [ 8.297937, 0.1, 9.990099]
		},
		{
			"name": "node_CurveLinePoint_-53636",
			"translation": [ 8.301168, 0.1, -8.872271]
		},
		{
			"name": "node_CurveLinePoint_-55502",
			"translation": [ 25.01276, 0.1, -7.553342]
		},
		{
			"name": "node_Line_-55518"
		},
		{
			"name": "node_CurveLinePoint_-58556",
			"translation": [ 25.05187, 0.1, 4.177754]
		},
		{
			"name": "node_Line_-58572"
		},
		{
			"name": "node_CurveLinePoint_-63554",
			"translation": [ 16.10445, 0.1, 4.083774]
		},
		{
			"name": "node_Line_-63570"
		},
		{
			"name": "node_Line_-69210"
		},
		{
			"name": "node_CurveLinePoint_-83288",
			"translation": [ 16.71517, 0.1000005, -8.334491]
		},
		{
			"name": "node_Line_-83304"
		},
		{
			"name": "node_CurveLine_-78916",
			"mesh": 1,
			"children": [
				27,
				28,
				29
			],
			"translation": [ 0.405426, -0.9994636, -0.4107475]
		},
		{
			"name": "node_CurveLinePoint_-78930",
			"translation": [ 16.29403, 0.1, -7.836906]
		},
		{
			"name": "node_CurveLinePoint_-78946",
			"translation": [ 15.68918, 0.1, -21.192]
		},
		{
			"name": "node_Line_-81824"
		},
		{
			"name": "node_arrowLines_-15902"
		},
		{
			"name": "node_CombineWall_-15906"
		},
		{
			"name": "node_CombineFloor_-15910"
		},
		{
			"name": "node_CombineCeiling_-15914"
		},
		{
			"name": "node_CombineDoorOrWin_-15922"
		},
		{
			"name": "node_CombinePlacement_-15926"
		},
		{
			"name": "node_DoorOrWins_-15930"
		},
		{
			"name": "node_ArrowDataLines_-15934"
		},
		{
			"name": "node_Polygon_-15938"
		},
		{
			"name": "node_CubePolygon_-15942"
		},
		{
			"name": "node_ColliderCube_-15946",
			"scale": [ 0, 0, 0]
		}
	],
	"scenes": [
		{
			"name":"defaultScene",
			"nodes": [
				0
			]
		}
	],
	"scene": 0
}